<svg width="24" height="24" viewBox="0 0 24 24" fill="none" xmlns="http://www.w3.org/2000/svg">
<g id="Icons/Carousel">
<path id="Vector" d="M17.3999 14.85V5.49999C17.3999 4.04999 16.2499 2.89999 14.7999 2.89999H5.4999C4.0499 2.89999 2.8999 4.04999 2.8999 5.49999V14.85C2.8999 16.3 4.0499 17.45 5.4999 17.45H14.8499C16.2499 17.4 17.3999 16.25 17.3999 14.85ZM19.5999 7.49999V15.55C19.5999 17.8 17.7499 19.65 15.4999 19.65H7.4499C7.1499 19.65 6.9999 20 7.1999 20.2C7.6999 20.75 8.3999 21.1 9.2499 21.1H15.9499C18.7999 21.1 21.0999 18.8 21.0999 15.95V9.24999C21.0999 8.44999 20.7499 7.69999 20.1999 7.19999C19.9499 6.99999 19.5999 7.19999 19.5999 7.49999Z" fill="white"/>
</g>
</svg>
