<svg width="22" height="21" viewBox="0 0 22 21" fill="none" xmlns="http://www.w3.org/2000/svg">
<g id="Icons/Comment" clip-path="url(#clip0_60_409)">
<path id="Vector" fill-rule="evenodd" clip-rule="evenodd" d="M21.7707 20.1687L20.4873 15.3562C21.3123 13.9125 21.7707 12.25 21.7707 10.5C21.7707 4.8125 16.9582 0.21875 10.9998 0.21875C5.0415 0.21875 0.229004 4.8125 0.229004 10.5C0.229004 16.1875 5.0415 20.7812 10.9998 20.7812C12.8332 20.7812 14.5748 20.3437 16.0873 19.5562L21.129 20.7812C21.4957 20.8687 21.8623 20.5187 21.7707 20.1687ZM20.3957 10.5C20.3957 12.25 19.9373 13.5625 19.204 14.875C19.1123 15.05 19.0665 15.2687 19.1123 15.4875L20.0748 19.1625L16.2707 18.2437C16.0415 18.2 15.8123 18.2 15.629 18.3312C14.804 18.7687 13.2457 19.4687 11.0457 19.4687C5.82067 19.4687 1.604 15.4437 1.604 10.5C1.604 5.55625 5.82067 1.53125 10.9998 1.53125C16.179 1.53125 20.3957 5.55625 20.3957 10.5Z" fill="white"/>
</g>
<defs>
<clipPath id="clip0_60_409">
<rect width="22" height="21" fill="white"/>
</clipPath>
</defs>
</svg>
