<svg width="22" height="25" viewBox="0 0 22 25" fill="none" xmlns="http://www.w3.org/2000/svg">
<g id="Icons/L&#196;&#176;ke">
<path id="Vector" d="M15.8583 3.07543C18.4708 3.07543 20.625 5.69709 20.625 8.87334C20.625 12.3017 17.9208 14.4192 15.3542 16.94C12.7875 19.4608 11.4583 20.8221 11 21.1246C10.4958 20.7717 8.84583 19.1079 6.64583 16.94C4.03333 14.4192 1.375 12.3017 1.375 8.87334C1.375 5.69709 3.52917 3.07543 6.14167 3.07543C8.06667 3.07543 9.12083 4.08376 9.85417 5.24334C10.725 6.55418 10.8625 7.20959 11 7.20959C11.1375 7.20959 11.275 6.55418 12.1458 5.24334C12.8792 4.08376 13.9333 3.07543 15.8583 3.07543ZM15.8583 1.56293C13.7958 1.56293 12.2375 2.47043 11 4.38626C9.7625 2.52084 8.20417 1.61334 6.14167 1.61334C2.75 1.56293 0 4.84001 0 8.87334C0 12.5538 2.475 14.9233 4.85833 17.1921C5.13333 17.4442 5.45417 17.7467 5.72917 18.0492L6.78333 19.0575C8.8 21.0238 9.80833 22.0321 10.2667 22.3346C10.4958 22.4858 10.7708 22.5867 11 22.5867C11.275 22.5867 11.5042 22.4858 11.7333 22.3346C12.1917 22.0321 13.0167 21.2254 15.3083 18.9063L16.225 17.9988C16.5458 17.6963 16.8208 17.3938 17.1417 17.1417C19.5708 14.9233 22 12.6042 22 8.87334C22 4.84001 19.25 1.56293 15.8583 1.56293Z" fill="white"/>
</g>
</svg>
