<svg width="22" height="22" viewBox="0 0 22 22" fill="none" xmlns="http://www.w3.org/2000/svg">
<g id="Icons/NewMessages" clip-path="url(#clip0_1_457)">
<path id="Vector" d="M16.85 22.06H4.25C3.69021 22.066 3.13485 21.9602 2.6165 21.7487C2.09814 21.5373 1.62723 21.2244 1.23137 20.8286C0.835517 20.4327 0.522691 19.9618 0.311242 19.4435C0.0997921 18.9251 -0.0060241 18.3698 -7.16856e-07 17.81V5.20996C-0.0060241 4.65017 0.0997921 4.09481 0.311242 3.57646C0.522691 3.0581 0.835517 2.58719 1.23137 2.19133C1.62723 1.79548 2.09814 1.48265 2.6165 1.2712C3.13485 1.05975 3.69021 0.953937 4.25 0.95996H11.5C11.6989 0.95996 11.8897 1.03898 12.0303 1.17963C12.171 1.32028 12.25 1.51105 12.25 1.70996C12.25 1.90887 12.171 2.09964 12.0303 2.24029C11.8897 2.38094 11.6989 2.45996 11.5 2.45996H4.25C3.88794 2.45662 3.52884 2.52548 3.19368 2.66249C2.85853 2.79951 2.55405 3.00195 2.29802 3.25798C2.04199 3.51401 1.83955 3.81849 1.70253 4.15365C1.56551 4.4888 1.49666 4.8479 1.5 5.20996V17.81C1.49666 18.172 1.56551 18.5311 1.70253 18.8663C1.83955 19.2014 2.04199 19.5059 2.29802 19.7619C2.55405 20.018 2.85853 20.2204 3.19368 20.3574C3.52884 20.4944 3.88794 20.5633 4.25 20.56H16.85C17.2121 20.5633 17.5712 20.4944 17.9063 20.3574C18.2415 20.2204 18.546 20.018 18.802 19.7619C19.058 19.5059 19.2605 19.2014 19.3975 18.8663C19.5345 18.5311 19.6033 18.172 19.6 17.81V10.56C19.6 10.361 19.679 10.1703 19.8197 10.0296C19.9603 9.88898 20.1511 9.80996 20.35 9.80996C20.5489 9.80996 20.7397 9.88898 20.8803 10.0296C21.021 10.1703 21.1 10.361 21.1 10.56V17.81C21.106 18.3698 21.0002 18.9251 20.7888 19.4435C20.5773 19.9618 20.2645 20.4327 19.8686 20.8286C19.4728 21.2244 19.0019 21.5373 18.4835 21.7487C17.9652 21.9602 17.4098 22.066 16.85 22.06Z" fill="white"/>
<path id="Vector_2" d="M8.7499 17.4097H5.3999C5.20099 17.4097 5.01022 17.3307 4.86957 17.19C4.72892 17.0494 4.6499 16.8586 4.6499 16.6597V13.3097C4.65008 13.1108 4.72921 12.9202 4.8699 12.7797L17.0499 0.629679C17.4656 0.2235 18.0237 -0.00390625 18.6049 -0.00390625C19.1861 -0.00390625 19.7442 0.2235 20.1599 0.629679L21.4099 1.87968C21.8161 2.29537 22.0435 2.85349 22.0435 3.43468C22.0435 4.01587 21.8161 4.57399 21.4099 4.98968L9.2599 17.1897C9.12432 17.3256 8.94179 17.4043 8.7499 17.4097ZM6.1499 15.9097H8.4399L20.3699 3.90968C20.4983 3.77487 20.5699 3.59584 20.5699 3.40968C20.5699 3.22352 20.4983 3.04449 20.3699 2.90968L19.1199 1.65968C18.9851 1.53129 18.8061 1.45968 18.6199 1.45968C18.4337 1.45968 18.2547 1.53129 18.1199 1.65968L6.1199 13.5897L6.1499 15.9097Z" fill="white"/>
<path id="Vector_3" d="M19.0999 7.00995C18.9981 7.01225 18.8969 6.99395 18.8024 6.95614C18.7079 6.91833 18.622 6.8618 18.5499 6.78995L15.2699 3.50995C15.1374 3.36777 15.0653 3.17973 15.0687 2.98543C15.0721 2.79113 15.1509 2.60574 15.2883 2.46833C15.4257 2.33091 15.6111 2.2522 15.8054 2.24877C15.9997 2.24535 16.1877 2.31747 16.3299 2.44995L19.6299 5.74995C19.7 5.81924 19.7557 5.90177 19.7937 5.99275C19.8318 6.08373 19.8513 6.18135 19.8513 6.27995C19.8513 6.37855 19.8318 6.47617 19.7937 6.56715C19.7557 6.65813 19.7 6.74065 19.6299 6.80995C19.4859 6.94288 19.2958 7.0146 19.0999 7.00995Z" fill="white"/>
</g>
<defs>
<clipPath id="clip0_1_457">
<rect width="22" height="22" fill="white"/>
</clipPath>
</defs>
</svg>
