<svg width="10" height="10" viewBox="0 0 10 10" fill="none" xmlns="http://www.w3.org/2000/svg">
<g id="Icons/Posts" clip-path="url(#clip0_1_292)">
<path id="Vector" fill-rule="evenodd" clip-rule="evenodd" d="M9.375 0.3125H0.625C0.458333 0.3125 0.3125 0.458333 0.3125 0.625V9.375C0.3125 9.54167 0.458333 9.6875 0.625 9.6875H9.375C9.54167 9.6875 9.6875 9.54167 9.6875 9.375V0.625C9.6875 0.458333 9.54167 0.3125 9.375 0.3125ZM0.9375 0.9375H3.22917V3.22917H0.9375V0.9375ZM0.9375 3.85417H3.22917V6.14583H0.9375V3.85417ZM3.22917 9.0625H0.9375V6.77083H3.22917V9.0625ZM6.14583 9.0625H3.85417V6.77083H6.14583V9.0625ZM6.14583 6.14583H3.85417V3.85417H6.14583V6.14583ZM6.14583 3.22917H3.85417V0.9375H6.14583V3.22917ZM9.0625 9.0625H6.77083V6.77083H9.0625V9.0625ZM9.0625 6.14583H6.77083V3.85417H9.0625V6.14583ZM9.0625 3.22917H6.77083V0.9375H9.0625V3.22917Z" fill="white"/>
</g>
<defs>
<clipPath id="clip0_1_292">
<rect width="10" height="10" fill="white"/>
</clipPath>
</defs>
</svg>
