<svg width="10" height="10" viewBox="0 0 10 10" fill="none" xmlns="http://www.w3.org/2000/svg">
<g id="Icons/Save" clip-path="url(#clip0_1_295)">
<path id="Vector" d="M9.0625 10C8.97917 10 8.89583 9.95833 8.83333 9.91667L5 6.04167L1.16667 9.91667C1.08333 10 0.9375 10.0417 0.833333 9.97917C0.708333 9.9375 0.625 9.8125 0.625 9.6875V0.3125C0.625 0.145833 0.770833 0 0.9375 0H9.0625C9.22917 0 9.375 0.145833 9.375 0.3125V9.6875C9.375 9.8125 9.29167 9.9375 9.1875 9.97917C9.14583 10 9.10417 10 9.0625 10ZM5 5.41667C5.16667 5.41667 5.33333 5.47917 5.45833 5.60417L8.75 8.9375V0.625H1.25V8.9375L4.54167 5.60417C4.66667 5.47917 4.83333 5.41667 5 5.41667Z" fill="#969696"/>
</g>
<defs>
<clipPath id="clip0_1_295">
<rect width="10" height="10" fill="white"/>
</clipPath>
</defs>
</svg>
