<svg width="22" height="22" viewBox="0 0 22 22" fill="none" xmlns="http://www.w3.org/2000/svg">
<g id="Icons/whitereels">
<path id="Union" fill-rule="evenodd" clip-rule="evenodd" d="M4 0L6.5 4.5H0.5L4 0ZM6.5 0H12L15 4.5H9L6.5 0ZM18.5 0H14L16.5 4.5H22L18.5 0ZM22 7H0V16.0543C0 16.6698 0.189329 17.2705 0.542305 17.7747L2.60427 20.7204C3.16566 21.5224 4.08303 22 5.06197 22H17.3014C18.3552 22 19.3317 21.4471 19.8739 20.5435L21.5725 17.7125C21.8522 17.2463 22 16.7128 22 16.169V7ZM8 10L15 14L8 18V10Z" fill="white"/>
</g>
</svg>
